<?xml version="1.0" encoding="utf-8" ?>
<svg baseProfile="full" height="200mm" version="1.1" viewBox="0,0,200,200" width="200mm" xmlns="http://www.w3.org/2000/svg" xmlns:ev="http://www.w3.org/2001/xml-events" xmlns:xlink="http://www.w3.org/1999/xlink"><defs /><rect fill="#1a1a1a" height="200" width="200" x="0" y="0" /><text alignment-baseline="middle" fill="#e1ed5e" style="dominant-baseline: central; font-size:9.0px; font-family:Arial;" text-anchor="middle" x="100.0" y="100.0">2019</text><line stroke="#e1ed5e" stroke-width="0.3" x1="100.0" x2="100.0" y1="15.0" y2="10.0" /><path d="M 100.0 14.0 a86.0,86.0 0 0,1 42.46469731375804,11.215312516191453" fill="none" id="id37" stroke="none" /><text fill="#e1ed5e" style="font-size:6.75px; font-family:Arial;" text-anchor="middle"><textPath startOffset="22.20632615414155" xlink:href="#id37">January</textPath></text><line stroke="#e1ed5e" stroke-width="0.3" x1="143.23703022742887" x2="145.7803849466894" y1="26.81831364943548" y2="22.513508569990506" /><path d="M 143.74570117128098 25.957352633546492 a86.0,86.0 0 0,1 28.547481713284135,27.462654790039103" fill="none" id="id38" stroke="none" /><text fill="#e1ed5e" style="font-size:6.75px; font-family:Arial;" text-anchor="middle"><textPath startOffset="19.985693538727396" xlink:href="#id38">February</textPath></text><line stroke="#e1ed5e" stroke-width="0.3" x1="172.23445277983987" x2="176.4835382374775" y1="55.19839476539836" y2="52.563006222186495" /><path d="M 173.08426987136738 54.67131705675599 a86.0,86.0 0 0,1 12.851231095245387,41.99856678651699" fill="none" id="id39" stroke="none" /><text fill="#e1ed5e" style="font-size:6.75px; font-family:Arial;" text-anchor="middle"><textPath startOffset="22.20632615414155" xlink:href="#id39">March</textPath></text><line stroke="#e1ed5e" stroke-width="0.3" x1="184.98032266829074" x2="189.97916517819016" y1="98.17113171792111" y2="98.06355123074" /><path d="M 185.9800911702706 98.14961562048488 a86.0,86.0 0 0,1 -9.607161424134198,41.387399972396054" fill="none" id="id40" stroke="none" /><text fill="#e1ed5e" style="font-size:6.75px; font-family:Arial;" text-anchor="middle"><textPath startOffset="21.466115282336823" xlink:href="#id40">April</textPath></text><line stroke="#e1ed5e" stroke-width="0.3" x1="174.80103733775053" x2="179.2010983576182" y1="140.37084112569926" y2="142.7455964860345" /><path d="M 175.68104954172406 140.8457921977663 a86.0,86.0 0 0,1 -30.038265399797805,32.042727171017184" fill="none" id="id41" stroke="none" /><text fill="#e1ed5e" style="font-size:6.75px; font-family:Arial;" text-anchor="middle"><textPath startOffset="22.206326154141568" xlink:href="#id41">May</textPath></text><line stroke="#e1ed5e" stroke-width="0.3" x1="143.8653032363475" x2="146.44561519142675" y1="172.8068346515853" y2="177.08958963109032" /><path d="M 144.38136562736335 173.6633856474863 a86.0,86.0 0 0,1 -40.68145358897372,12.25698825130547" fill="none" id="id42" stroke="none" /><text fill="#e1ed5e" style="font-size:6.75px; font-family:Arial;" text-anchor="middle"><textPath startOffset="21.466115282336833" xlink:href="#id42">June</textPath></text><line stroke="#e1ed5e" stroke-width="0.3" x1="102.19456741930631" x2="102.32365962044197" y1="184.97166512339345" y2="189.96999836594603" /><path d="M 102.22038585953345 185.97133177190398 a86.0,86.0 0 0,1 -42.740103519485714,-10.115201625700543" fill="none" id="id43" stroke="none" /><text fill="#e1ed5e" style="font-size:6.75px; font-family:Arial;" text-anchor="middle"><textPath startOffset="22.20632615414155" xlink:href="#id43">July</textPath></text><line stroke="#e1ed5e" stroke-width="0.3" x1="58.666819895761336" x2="56.23545636021788" y1="174.27360380694188" y2="178.64263932499728" /><path d="M 58.180547188652646 175.14741091055294 a86.0,86.0 0 0,1 -31.652253787137756,-30.449443065178592" fill="none" id="id44" stroke="none" /><text fill="#e1ed5e" style="font-size:6.75px; font-family:Arial;" text-anchor="middle"><textPath startOffset="22.20632615414155" xlink:href="#id44">August</textPath></text><line stroke="#e1ed5e" stroke-width="0.3" x1="26.63291911575756" x2="22.317208475507996" y1="142.92168965132927" y2="145.44649492493687" /><path d="M 25.769776987707644 143.4266507060508 a86.0,86.0 0 0,1 -11.730757126820373,-40.83630448921669" fill="none" id="id45" stroke="none" /><text fill="#e1ed5e" style="font-size:6.75px; font-family:Arial;" text-anchor="middle"><textPath startOffset="21.46611528233685" xlink:href="#id45">September</textPath></text><line stroke="#e1ed5e" stroke-width="0.3" x1="15.007084014347285" x2="10.007500721073583" y1="101.09737516637583" y2="101.16192664675087" /><path d="M 14.007167355692545 101.11028546245083 a86.0,86.0 0 0,1 10.666146001902534,-42.60595125391555" fill="none" id="id46" stroke="none" /><text fill="#e1ed5e" style="font-size:6.75px; font-family:Arial;" text-anchor="middle"><textPath startOffset="22.20632615414155" xlink:href="#id46">October</textPath></text><path d="M 79.91906864156998 93.8553929516997 l -37.01406147079828 -11.326011674463963 a59.70812946932631,59.70812946932631 0 0,0 0.30918722163082574,-0.9802079855971592 l 36.813618765399255 11.961469826487537" fill="#ff0000" stroke="none" /><path d="M 80.02781315780177 93.51064311812611 l -52.28000981266959 -16.986804907385952 a75.970455400828,75.970455400828 0 0,0 0.4148084766499909,-1.2402245473639988 l 51.979864042247826 17.884202557672275" fill="#34ff58" stroke="none" /><path d="M 80.14247586403 93.16781622104843 l -52.295359412008516 -17.992751958536847 a76.30410237109521,76.30410237109521 0 0,0 0.4380106886861159,-1.2383152000693383 l 51.97789564251259 18.890264785032794" fill="#35ff62" stroke="none" /><path d="M 80.2630227832202 92.82701384747504 l -44.98999333741581 -16.35065976248444 a68.86902521640948,68.86902521640948 0 0,0 0.4145108943676125,-1.1106831150543213 l 44.701877854546574 17.122666014568104" fill="#ccff1d" stroke="none" /><path d="M 80.38941819471856 92.48833698450439 l -47.83815806207438 -18.32399090513167 a72.22751223184042,72.22751223184042 0 0,0 0.4547115710975408,-1.1571913506812443 l 47.51565294109515 19.144731260708674" fill="#6dff28" stroke="none" /><path d="M 80.52162464483688 92.15188598940014 l -47.76385848758547 -19.244736799743684 a72.49510726383139,72.49510726383139 0 0,0 0.47632155282226013,-1.1534504216457588 l 47.425515247877016 20.064061791842757" fill="#66ff29" stroke="none" /><path d="M 81.10775173730289 90.83032412892265 l -48.72481374209293 -23.649421851807805 a75.16089574708317,75.16089574708317 0 0,0 0.5749450152010159,-1.1590540670248604 l 48.310508713938496 24.484635507331628" fill="#31ff3f" stroke="none" /><path d="M 81.26839172434947 90.50648371742162 l -46.488610796273484 -23.56126484465169 a73.11836657884834,73.11836657884834 0 0,0 0.5786467994354942,-1.117761436932312 l 46.076154563677875 24.357999003844338" fill="#56ff2b" stroke="none" /><path d="M 81.43458229118936 90.18545643968196 l -45.67637770511672 -24.146658356717744 a72.66616484757245,72.66616484757245 0 0,0 0.5941043792944561,-1.1007851860147706 l 45.253965226603796 24.929324526064985" fill="#62ff29" stroke="none" /><path d="M 81.6062741919709 89.86733742301443 l -45.065567744673075 -24.825540869905208 a72.45107263831389,72.45107263831389 0 0,0 0.6111501856211601,-1.0871679862497827 l 44.63155991775948 25.597592366089774" fill="#67ff28" stroke="none" /><line stroke="#e1ed5e" stroke-width="0.3" x1="26.266209847984243" x2="21.928928074336255" y1="57.711370442889674" y2="55.22380399835377" /><path d="M 25.398753493254645 57.213857153982495 a86.0,86.0 0 0,1 29.58750427330803,-30.492523968695096" fill="none" id="id47" stroke="none" /><text fill="#e1ed5e" style="font-size:6.75px; font-family:Arial;" text-anchor="middle"><textPath startOffset="21.46611528233685" xlink:href="#id47">November</textPath></text><path d="M 81.78341655067845 89.55222093294921 l -47.55812324624879 -27.276067760054378 a75.82480240873164,75.82480240873164 0 0,0 0.6590992435672934,-1.1266142574153566 l 47.08156432821117 28.090661429823626" fill="#33ff53" stroke="none" /><path d="M 81.96595687620814 89.24020034530311 l -44.408310019254024 -26.495695697902597 a72.71189311253293,72.71189311253293 0 0,0 0.6505436186926749,-1.0693226602034633 l 43.94565060227513 27.256186131313136" fill="#61ff29" stroke="none" /><path d="M 82.15384107792192 88.93136811851018 l -45.47560922377378 -28.205104542788774 a74.51223184042152,74.51223184042152 0 0,0 0.6854146158901115,-1.0841613196621203 l 44.983367011637704 28.98371351016511" fill="#33ff2f" stroke="none" /><path d="M 82.34701348167596 88.62581576622439 l -44.15477099945981 -28.449831966206514 a73.5265336846067,73.5265336846067 0 0,0 0.6946624606426278,-1.0580185856107494 l 43.65851190345926 29.205668615794927" fill="#4bff2c" stroke="none" /><path d="M 82.54541684631803 88.32363383020206 l -51.807706635165125 -34.65712975001937 a83.33101242002259,83.33101242002259 0 0,0 0.8078169228462349,-1.1853716549041278 l 51.20346524665015 35.543779428193915" fill="#4be2ff" stroke="none" /><path d="M 82.7489923806493 88.02491185347247 l -50.15443628716385 -34.815577659619116 a82.05400828001505,82.05400828001505 0 0,0 0.8154112391689154,-1.1533413707531732 l 49.547712428191055 35.673745530704075" fill="#47fffe" stroke="none" /><path d="M 82.95767976084542 87.72973835380427 l -48.34918805199802 -34.81082267285021 a80.57715468573579,80.57715468573579 0 0,0 0.8201119301720958,-1.118631751094424 l 47.74281350931229 35.637916867616134" fill="#42ffd8" stroke="none" /><path d="M 83.17141714833178 87.43820079747576 l -48.35898991245149 -36.09786553458312 a81.34606699284907,81.34606699284907 0 0,0 0.8472543818798841,-1.1148874525116135 l 47.7304595903475 36.92493776297576" fill="#45ffec" stroke="none" /><path d="M 83.39014120810768 87.1503855733568 l -47.76126985586287 -36.948773006683446 a81.38502070003764,81.38502070003764 0 0,0 0.8667346562066008,-1.100664995099969 l 47.1181811190623 37.765430395736466" fill="#45ffed" stroke="none" /><path d="M 83.6137871275137 86.86637796730984 l -47.016422552108565 -37.68387045462264 a81.2546104629281,81.2546104629281 0 0,0 0.8841333817392573,-1.0838429849045197 l 46.360790678292915 38.48759760913524" fill="#44ffea" stroke="none" /><path d="M 83.84228863543731 86.58626213691792 l -48.47313409368807 -40.241213589246236 a84.0,84.0 0 0,0 0.9331575460515031,-1.1045642014835364 l 47.77326593414944 41.06963674035889" fill="#4dd2ff" stroke="none" /><path d="M 84.07557802195018 86.31012108654704 l -46.66106505509751 -40.113501856301916 a82.53330824237861,82.53330824237861 0 0,0 0.9354094708344732,-1.0693347270408873 l 45.96366372068519 40.91075213954575" fill="#48f5ff" stroke="none" /><path d="M 84.31358615837235 86.03803664274999 l -44.98700544719712 -40.04146058797333 a81.22581859239745,81.22581859239745 0 0,0 0.9385695917910823,-1.036391985408646 l 44.29109221479 40.809905360651534" fill="#44ffe9" stroke="none" /><path d="M 84.5562425177563 85.77008943001954 l -45.07826798193699 -41.53521076526153 a82.2961987203613,82.2961987203613 0 0,0 0.9688718857755458,-1.0335249751067024 l 44.35662877419099 42.305005157246285" fill="#48faff" stroke="none" /><path d="M 84.80347519578584 85.50635884689758 l -45.21086645808829 -43.11973185360462 a83.47666541211893,83.47666541211893 0 0,0 1.000669515768009,-1.0312778973326784 l 44.46193267861717 43.891573946487426" fill="#4bdeff" stroke="none" /><path d="M 85.05521093208273 85.24692304244772 l -43.237358317656586 -42.68270845461638 a81.75592773805045,81.75592773805045 0 0,0 0.9972829433617455,-0.9930002934674745 l 42.49623957412753 43.420644598733965" fill="#46fff6" stroke="none" /><path d="M 85.83668400450813 84.49514656593479 l -41.25401799772981 -45.16156405919937 a82.16748212269476,82.16748212269476 0 0,0 1.052483327043302,-0.94492992283635 l 40.47052368309053 45.864992990805" fill="#47feff" stroke="none" /><path d="M 86.10567301691215 84.25364557470407 l -39.94721726598999 -45.27193308033026 a81.37655250282273,81.37655250282273 0 0,0 1.0583067206317769,-0.9177531594042729 l 39.162016746711444 45.95285123315421" fill="#45ffed" stroke="none" /><path d="M 86.37877921826538 84.01681056812374 l -38.670967306733324 -45.376652055022426 a80.61949567181031,80.61949567181031 0 0,0 1.0639564571238025,-0.8910329350915108 l 37.88415331265041 46.03558614750775" fill="#42ffd9" stroke="none" /><path d="M 86.65592168130627 83.78471172551755 l -36.445282993378385 -44.287117916179476 a78.35509973654497,78.35509973654497 0 0,0 1.0488262971943998,-0.8480779246846337 l 35.67755329761949 44.90790193812824" fill="#3bff9c" stroke="none" /><line stroke="#e1ed5e" stroke-width="0.3" x1="56.762969772571076" x2="54.21961505331055" y1="26.818313649435495" y2="22.513508569990535" /><path d="M 56.25429882871897 25.957352633546506 a86.0,86.0 0 0,1 42.265352541879196,-11.944610805530505" fill="none" id="id48" stroke="none" /><text fill="#e1ed5e" style="font-size:6.75px; font-family:Arial;" text-anchor="middle"><textPath startOffset="22.20632615414155" xlink:href="#id48">December</textPath></text></svg>