<?xml version="1.0" encoding="utf-8" ?>
<svg baseProfile="full" height="200mm" version="1.1" viewBox="0,0,200,200" width="200mm" xmlns="http://www.w3.org/2000/svg" xmlns:ev="http://www.w3.org/2001/xml-events" xmlns:xlink="http://www.w3.org/1999/xlink"><defs /><rect fill="#1a1a1a" height="200" width="200" x="0" y="0" /><text alignment-baseline="middle" fill="#e1ed5e" style="dominant-baseline: central; font-size:9.0px; font-family:Arial;" text-anchor="middle" x="100.0" y="100.0">2024</text><line stroke="#e1ed5e" stroke-width="0.3" x1="100.0" x2="100.0" y1="15.0" y2="10.0" /><path d="M 100.0 14.0 a86.0,86.0 0 0,1 42.35913384403234,11.155469271406648" fill="none" id="id97" stroke="none" /><text fill="#e1ed5e" style="font-size:6.75px; font-family:Arial;" text-anchor="middle"><textPath startOffset="22.145653131862478" xlink:href="#id97">January</textPath></text><line stroke="#e1ed5e" stroke-width="0.3" x1="143.13028292997686" x2="145.6673583964461" y1="26.7553504044142" y2="22.446841604673864" /><path d="M 143.63769802327073 25.89364864446614 a86.0,86.0 0 0,1 29.32050498858742,28.57503671076993" fill="none" id="id98" stroke="none" /><text fill="#e1ed5e" style="font-size:6.75px; font-family:Arial;" text-anchor="middle"><textPath startOffset="20.669276256404974" xlink:href="#id98">February</textPath></text><line stroke="#e1ed5e" stroke-width="0.3" x1="172.87174338648825" x2="177.1583165268699" y1="56.24261187166439" y2="53.66864786411523" /><path d="M 173.72905801456457 55.72781907015455 a86.0,86.0 0 0,1 12.242430191666344,42.057860355516425" fill="none" id="id99" stroke="none" /><text fill="#e1ed5e" style="font-size:6.75px; font-family:Arial;" text-anchor="middle"><textPath startOffset="22.145653131862474" xlink:href="#id99">March</textPath></text><line stroke="#e1ed5e" stroke-width="0.3" x1="184.99686870605535" x2="189.99668451229388" y1="99.2704041080226" y2="99.22748670261217" /><path d="M 185.99683186730306 99.26182062694052 a86.0,86.0 0 0,1 -10.086455211305974,41.156179273409016" fill="none" id="id100" stroke="none" /><text fill="#e1ed5e" style="font-size:6.75px; font-family:Arial;" text-anchor="middle"><textPath startOffset="21.40746469413373" xlink:href="#id100">April</textPath></text><line stroke="#e1ed5e" stroke-width="0.3" x1="174.33088141563837" x2="178.70328620479359" y1="141.23008692659167" y2="143.65538615756765" /><path d="M 175.20536237346943 141.71514677278685 a86.0,86.0 0 0,1 -30.301960400862466,31.631185727798858" fill="none" id="id101" stroke="none" /><text fill="#e1ed5e" style="font-size:6.75px; font-family:Arial;" text-anchor="middle"><textPath startOffset="22.145653131862474" xlink:href="#id101">May</textPath></text><line stroke="#e1ed5e" stroke-width="0.3" x1="143.1302829299769" x2="145.66735839644613" y1="173.24464959558577" y2="177.55315839532614" /><path d="M 143.63769802327073 174.10635135553383 a86.0,86.0 0 0,1 -40.68552437913181,11.842963189579606" fill="none" id="id102" stroke="none" /><text fill="#e1ed5e" style="font-size:6.75px; font-family:Arial;" text-anchor="middle"><textPath startOffset="21.407464694133747" xlink:href="#id102">June</textPath></text><line stroke="#e1ed5e" stroke-width="0.3" x1="101.45913802915013" x2="101.54496967792366" y1="184.9874750549273" y2="189.98673829345242" /><path d="M 101.47630435890484 185.9873277026323 a86.0,86.0 0 0,1 -42.54439059252881,-10.42667462771756" fill="none" id="id103" stroke="none" /><text fill="#e1ed5e" style="font-size:6.75px; font-family:Arial;" text-anchor="middle"><textPath startOffset="22.145653131862474" xlink:href="#id103">July</textPath></text><path d="M 97.48249496171623 120.84855314841334 l -2.629490268511229 21.7759515006431 a42.93413510559638,42.93413510559638 0 0,0 -0.730947880866083,-0.09463583726450261 l 3.0029159712681057 -21.7276040671782" fill="#f4ff19" stroke="none" /><path d="M 97.12497278360702 120.80226474461374 l -0.5768102024460117 4.1735112872184 a25.213182463908392,25.213182463908392 0 0,0 -0.4282337710766046,-0.0629356173084532 l 0.6483690791303012 -4.162994596611064" fill="#ff1a02" stroke="none" /><path d="M 96.76829788921471 120.74984581791261 l -2.1400798428515797 13.740847780800685 a34.90650349544826,34.90650349544826 0 0,0 -0.5912870753851344,-0.09729606324350124 l 2.375644421289778 -13.702085719061515" fill="#ffa30f" stroke="none" /><path d="M 96.41257539226777 120.69131181640829 l -4.873089397392846 28.106684671048214 a49.526000832095605,49.526000832095605 0 0,0 -0.8364358229174168,-0.15242647007881086 l 5.35485995386132 -28.018890027038037" fill="#a6ff21" stroke="none" /><path d="M 95.35216902796893 120.47920084513623 l -4.076802491965873 17.96314400014347 a39.4199582227645,39.4199582227645 0 0,0 -0.6586283733945227,-0.15543450276902407 l 4.384563019100283 -17.89051335372822" fill="#ffde14" stroke="none" /><path d="M 94.6519064749342 120.30758222061772 l -8.03920870798346 30.526184903258812 a52.56702142107271,52.56702142107271 0 0,0 -0.8706565594149229,-0.2373013169062795 l 8.562046668333078 -30.383683092208386" fill="#84ff25" stroke="none" /><path d="M 94.30408787586889 120.21278271476187 l -8.09128476011972 28.71311515616341 a50.831390699068095,50.831390699068095 0 0,0 -0.8378465212952922,-0.24388491144302632 l 8.582991293796619 -28.569986550417866" fill="#97ff23" stroke="none" /><path d="M 93.95794788825049 120.11202640906438 l -5.786636178387414 19.26182983643224 a41.11226608089435,41.11226608089435 0 0,0 -0.674161615658561,-0.2088569918338464 l 6.116438426917609 -19.159656256791745" fill="#fff316" stroke="none" /><path d="M 93.61358852112213 120.00534299687104 l -7.423171327117121 23.252978455063335 a45.40910648883677,45.40910648883677 0 0,0 -0.7405517369599477,-0.24343406516527274 l 7.821245801724812 -23.12212346849604" fill="#d6ff1c" stroke="none" /><line stroke="#e1ed5e" stroke-width="0.3" x1="58.13341422392154" x2="55.67067388415222" y1="173.97424548756322" y2="178.32567169271397" /><path d="M 57.64086615596768 174.84453072859336 a86.0,86.0 0 0,1 -31.369924170532247,-30.572349798747897" fill="none" id="id104" stroke="none" /><text fill="#e1ed5e" style="font-size:6.75px; font-family:Arial;" text-anchor="middle"><textPath startOffset="22.145653131862474" xlink:href="#id104">August</textPath></text><path d="M 89.03521579738668 117.91015095944536 l -24.314530520792836 39.71595829780677 a67.56773279814783,67.56773279814783 0 0,0 -0.9840303060012121,-0.61410768951151 l 24.99272495558376 -39.29271481145371" fill="#38ff82" stroke="none" /><path d="M 88.72937992617639 117.7192867562869 l -7.227702496246925 11.363148813575584 a34.46702767256822,34.46702767256822 0 0,0 -0.4965129087784346,-0.3218336687714026 l 7.42170103728237 -11.237401303100288" fill="#ff9d0e" stroke="none" /><path d="M 88.1277618465304 117.32195027204791 l -10.857712280595504 15.841726704051583 a40.20547372323983,40.20547372323983 0 0,0 -0.5659493044892323,-0.3950765683714857 l 11.128056676258502 -15.653005319874968" fill="#ffe815" stroke="none" /><path d="M 87.54013794807813 116.9041958592261 l -14.316181098358467 19.42264916211287 a45.1286622446318,45.1286622446318 0 0,0 -0.6196530891759584,-0.46499923022700734 l 14.64748717644519 -19.174030904621848" fill="#daff1c" stroke="none" /><path d="M 86.68645165197938 116.24036423190432 l -18.639266165750275 22.736874019930255 a50.40047080228244,50.40047080228244 0 0,0 -0.6643878042093296,-0.5542559360425076 l 19.026828304121498 -22.413555899975876" fill="#9cff22" stroke="none" /><path d="M 84.58840730492382 114.26474011684316 l -18.65989792362952 17.271322942010855 a46.426175227263414,46.426175227263414 0 0,0 -0.5363379452977078,-0.589529354461253 l 18.953633569769107 -16.948456011991926" fill="#caff1d" stroke="none" /><path d="M 83.8745106332314 113.45245675266167 l -25.232487661086573 21.04983863140006 a53.859916919780375,53.859916919780375 0 0,0 -0.5861835870266162,-0.7150486640544467 l 25.59011806735182 -20.61358768564712" fill="#76ff27" stroke="none" /><path d="M 83.20337586046588 112.60449989151573 l -43.1160266779901 32.35507022546194 a74.90586541176876,74.90586541176876 0 0,0 -0.7629625396620356,-1.0351052162499879 l 43.66509123723597 -31.610158699943067" fill="#41ffd2" stroke="none" /><path d="M 82.78059297857968 112.02048342749411 l -27.319929315282906 19.07143243470303 a54.318134295057654,54.318134295057654 0 0,0 -0.5271711069702962,-0.7691583997690651 l 27.643290159068528 -18.599639299863917" fill="#71ff27" stroke="none" /><path d="M 81.99639281039703 110.81064883170644 l -10.754800392189619 6.457948624995786 a33.544753162933375,33.544753162933375 0 0,0 -0.2922008209860983,-0.4962208752355334 l 10.864074923305488 -6.272376581466693" fill="#ff900d" stroke="none" /><line stroke="#e1ed5e" stroke-width="0.3" x1="26.387840678322732" x2="22.057713659400548" y1="142.50000000000003" y2="145.00000000000006" /><path d="M 25.521815274538298 143.00000000000003 a86.0,86.0 0 0,1 -11.493303480769221,-40.785679425670985" fill="none" id="id105" stroke="none" /><text fill="#e1ed5e" style="font-size:6.75px; font-family:Arial;" text-anchor="middle"><textPath startOffset="21.40746469413373" xlink:href="#id105">September</textPath></text><path d="M 81.81346652052679 110.50000000000001 l -25.069901703750965 14.474114497218094 a49.948228994436164,49.948228994436164 0 0,0 -0.4223399497944597,-0.7462342234544337 l 25.314675018566803 -14.041623503664539" fill="#a1ff22" stroke="none" /><path d="M 81.4637452351635 109.86951160357371 l -3.5485442436575783 1.8893999371982688 a25.020198797557175,25.020198797557175 0 0,0 -0.1986031072474028,-0.38084764494815954 l 3.58045541987993 -1.8282060491456062" fill="#ff1702" stroke="none" /><path d="M 81.29705330413844 109.54985784667822 l -19.25344484129137 9.830946122189268 a42.61810907350681,42.61810907350681 0 0,0 -0.32710431043902316,-0.6544277393687841 l 19.419369064942128 -9.498986526656731" fill="#f8ff18" stroke="none" /><path d="M 81.1358732173502 109.22738970284198 l -4.903365984804839 2.398482013970977 a26.458545039869453,26.458545039869453 0 0,0 -0.19607135297169404,-0.4097137171672801 l 4.943816595736445 -2.3139557947385923" fill="#ff2d04" stroke="none" /><path d="M 80.83023694016515 108.57439118712176 l -28.747516194537415 12.858398340172576 a52.492191019834486,52.492191019834486 0 0,0 -0.36086161152177515,-0.82572198735347 l 28.96401168807616 -12.363014283043256" fill="#85ff25" stroke="none" /><path d="M 80.68587082218212 108.24405325689762 l -28.674730050599347 12.239537153753867 a52.17765887960266,52.17765887960266 0 0,0 -0.34455679900915454,-0.8268108861235344 l 28.88061269414499 -11.74549375818905" fill="#88ff25" stroke="none" /><path d="M 80.28708602549918 107.23885506374661 l -4.285142636007082 1.5735637313519921 a25.56492609223327,25.56492609223327 0 0,0 -0.14774071825678994,-0.4132570833818327 l 4.311523524307815 -1.4997716915892378" fill="#ff1f03" stroke="none" /><path d="M 79.83685265289637 105.86919833188381 l -9.939984947621282 2.893384751359726 a31.352534765859936,31.352534765859936 0 0,0 -0.14598562508048069,-0.5180514823480593 l 9.988189064776337 -2.722325345108671" fill="#ff720a" stroke="none" /><path d="M 79.407916724674 104.11899336999214 l -14.135497530720196 2.8274953938411063 a35.415513193889055,35.415513193889055 0 0,0 -0.11412852802669826,-0.5971686847611867 l 14.18195235102905 -2.5844241440466047" fill="#ffa90f" stroke="none" /><path d="M 79.34024301695615 103.76489593502545 l -29.28219232955818 5.336190883594052 a50.76443718217074,50.76443718217074 0 0,0 -0.14887319660799958,-0.8586610365224744 l 29.36948034365841 -4.8327368141509846" fill="#98ff23" stroke="none" /><path d="M 79.2786578344484 103.40968896794605 l -9.803227406476083 1.6131173391701015 a30.935059895794037,30.935059895794037 0 0,0 -0.08172528398247497,-0.5247349489304897 l 9.829474182596826 -1.4445942083081618" fill="#ff6c0a" stroke="none" /><path d="M 79.17382384314188 102.69636545807758 l -13.581287450048999 1.7583695672561361 a34.69464246834911,34.69464246834911 0 0,0 -0.07140143168804775,-0.5913062817287671 l 13.609470967996707 -1.5249696086039697" fill="#ffa00e" stroke="none" /><path d="M 79.13060592940153 102.33845913500099 l -29.056742826245216 3.255868640246479 a50.238587248242574,50.238587248242574 0 0,0 -0.08867734449492531,-0.8578728663863894 l 29.108352563221807 -2.7565912515771585" fill="#9eff22" stroke="none" /><path d="M 79.0935383218832 101.97986365728391 l -26.614119643032502 2.5203848007910414 a47.73319479444436,47.73319479444436 0 0,0 -0.07025048229330154,-0.8164170910324775 l 26.653463748023544 -2.063146662382902" fill="#bbff1f" stroke="none" /><path d="M 79.03789590574601 101.26102812881392 l -62.886312282761985 3.783084386441755 a84.0,84.0 0 0,0 -0.07423364217370931,-1.440112826493077 l 62.94198751439227 -2.7029997665719474" fill="#4dd2ff" stroke="none" /><path d="M 79.01933749520258 100.90099992219065 l -33.24294973361335 1.4275952971706454 a54.27358915602655,54.27358915602655 0 0,0 -0.03198345969572845,-0.9311635320255753 l 33.26255788030593 -0.8567255005809501" fill="#71ff27" stroke="none" /><line stroke="#e1ed5e" stroke-width="0.3" x1="15.003131293944662" x2="10.003315487706104" y1="100.72959589197737" y2="100.7725132973878" /><path d="M 14.003168132696942 100.73817937305945 a86.0,86.0 0 0,1 10.791469493833604,-42.45332614584628" fill="none" id="id106" stroke="none" /><text fill="#e1ed5e" style="font-size:6.75px; font-family:Arial;" text-anchor="middle"><textPath startOffset="22.145653131862435" xlink:href="#id106">October</textPath></text><path d="M 79.00077361379809 100.18025310272382 l -43.538960680866474 0.37372961307057495 a64.5405646609426,64.5405646609426 0 0,0 0.0,-1.107965431588769 l 43.538960680866474 0.3737296130705589" fill="#34ff5e" stroke="none" /><path d="M 79.03789590574601 98.7389718711861 l -2.438783325249982 -0.1467111488138042 a23.443192229175516,23.443192229175516 0 0,0 0.027613891114083865,-0.401499916382724 l 2.4359054729708345 0.18855448935085314" fill="#ff0000" stroke="none" /><path d="M 79.0935383218832 98.0201363427161 l -4.258772915928173 -0.40331022296790237 a25.277827238843777,25.277827238843777 0 0,0 0.044618503762179566,-0.4316435492553897 l 4.25122201968433 0.47635829450620487" fill="#ff1b02" stroke="none" /><path d="M 79.13060592940154 97.66154086499901 l -14.747619966123567 -1.6525015777957237 a35.83991428984089,35.83991428984089 0 0,0 0.07375839639234402,-0.6108253306121975 l 14.717079483471556 1.9054205853313575" fill="#ffaf10" stroke="none" /><path d="M 79.17382384314186 97.30363454192245 l -4.231508846919213 -0.5478535379921533 a25.266826762436704,25.266826762436704 0 0,0 0.05938364047504168,-0.42967044054998077 l 4.221480689888963 0.6204122867422011" fill="#ff1b02" stroke="none" /><path d="M 79.34024301695615 96.23510406497455 l -3.9009521111770127 -0.71088342220836 a24.965196415521817,24.965196415521817 0 0,0 0.08045178120678616,-0.42095771496075074 l 3.8881740376880676 0.7777437022024252" fill="#ff1702" stroke="none" /><path d="M 79.407916724674 95.88100663000787 l -31.015768671427335 -6.20402238154781 a52.63017230415034,52.63017230415034 0 0,0 0.18481282787695502,-0.8843962843880453 l 30.90469813272601 6.735535117221264" fill="#83ff25" stroke="none" /><path d="M 79.48165901384962 95.52812308129327 l -4.861489227226284 -1.0595389500763646 a25.975610544763942,25.975610544763942 0 0,0 0.09869388504192532,-0.43486346773861223 l 4.842584480626697 1.142836751753985" fill="#ff2503" stroke="none" /><line stroke="#e1ed5e" stroke-width="0.3" x1="26.387840678322718" x2="22.05771365940052" y1="57.49999999999999" y2="54.99999999999999" /><path d="M 25.521815274538284 56.99999999999999 a86.0,86.0 0 0,1 29.574782752854787,-30.34633250058573" fill="none" id="id107" stroke="none" /><text fill="#e1ed5e" style="font-size:6.75px; font-family:Arial;" text-anchor="middle"><textPath startOffset="21.40746469413373" xlink:href="#id107">November</textPath></text><line stroke="#e1ed5e" stroke-width="0.3" x1="56.869717070023135" x2="54.33264160355391" y1="26.7553504044142" y2="22.446841604673864" /><path d="M 56.362301976729285 25.89364864446614 a86.0,86.0 0 0,1 42.16139366436587,-11.88097634709845" fill="none" id="id108" stroke="none" /><text fill="#e1ed5e" style="font-size:6.75px; font-family:Arial;" text-anchor="middle"><textPath startOffset="22.145653131862474" xlink:href="#id108">December</textPath></text></svg>