<?xml version="1.0" encoding="utf-8" ?>
<svg baseProfile="full" height="200mm" version="1.1" viewBox="0,0,200,200" width="200mm" xmlns="http://www.w3.org/2000/svg" xmlns:ev="http://www.w3.org/2001/xml-events" xmlns:xlink="http://www.w3.org/1999/xlink"><defs /><rect fill="#1a1a1a" height="200" width="200" x="0" y="0" /><text alignment-baseline="middle" fill="#e1ed5e" style="dominant-baseline: central; font-size:9.0px; font-family:Arial;" text-anchor="middle" x="100.0" y="100.0">2024</text><line stroke="#e1ed5e" stroke-width="0.3" x1="100.0" x2="100.0" y1="15.0" y2="10.0" /><path d="M 100.0 14.0 a86.0,86.0 0 0,1 42.35913384403234,11.155469271406648" fill="none" id="id97" stroke="none" /><text fill="#e1ed5e" style="font-size:6.75px; font-family:Arial;" text-anchor="middle"><textPath startOffset="22.145653131862478" xlink:href="#id97">January</textPath></text><line stroke="#e1ed5e" stroke-width="0.3" x1="143.13028292997686" x2="145.6673583964461" y1="26.7553504044142" y2="22.446841604673864" /><path d="M 143.63769802327073 25.89364864446614 a86.0,86.0 0 0,1 29.32050498858742,28.57503671076993" fill="none" id="id98" stroke="none" /><text fill="#e1ed5e" style="font-size:6.75px; font-family:Arial;" text-anchor="middle"><textPath startOffset="20.669276256404974" xlink:href="#id98">February</textPath></text><line stroke="#e1ed5e" stroke-width="0.3" x1="172.87174338648825" x2="177.1583165268699" y1="56.24261187166439" y2="53.66864786411523" /><path d="M 173.72905801456457 55.72781907015455 a86.0,86.0 0 0,1 12.242430191666344,42.057860355516425" fill="none" id="id99" stroke="none" /><text fill="#e1ed5e" style="font-size:6.75px; font-family:Arial;" text-anchor="middle"><textPath startOffset="22.145653131862474" xlink:href="#id99">March</textPath></text><line stroke="#e1ed5e" stroke-width="0.3" x1="184.99686870605535" x2="189.99668451229388" y1="99.2704041080226" y2="99.22748670261217" /><path d="M 185.99683186730306 99.26182062694052 a86.0,86.0 0 0,1 -10.086455211305974,41.156179273409016" fill="none" id="id100" stroke="none" /><text fill="#e1ed5e" style="font-size:6.75px; font-family:Arial;" text-anchor="middle"><textPath startOffset="21.40746469413373" xlink:href="#id100">April</textPath></text><line stroke="#e1ed5e" stroke-width="0.3" x1="174.33088141563837" x2="178.70328620479359" y1="141.23008692659167" y2="143.65538615756765" /><path d="M 175.20536237346943 141.71514677278685 a86.0,86.0 0 0,1 -30.301960400862466,31.631185727798858" fill="none" id="id101" stroke="none" /><text fill="#e1ed5e" style="font-size:6.75px; font-family:Arial;" text-anchor="middle"><textPath startOffset="22.145653131862474" xlink:href="#id101">May</textPath></text><line stroke="#e1ed5e" stroke-width="0.3" x1="143.1302829299769" x2="145.66735839644613" y1="173.24464959558577" y2="177.55315839532614" /><path d="M 143.63769802327073 174.10635135553383 a86.0,86.0 0 0,1 -40.68552437913181,11.842963189579606" fill="none" id="id102" stroke="none" /><text fill="#e1ed5e" style="font-size:6.75px; font-family:Arial;" text-anchor="middle"><textPath startOffset="21.407464694133747" xlink:href="#id102">June</textPath></text><line stroke="#e1ed5e" stroke-width="0.3" x1="101.45913802915013" x2="101.54496967792366" y1="184.9874750549273" y2="189.98673829345242" /><path d="M 101.47630435890484 185.9873277026323 a86.0,86.0 0 0,1 -42.54439059252881,-10.42667462771756" fill="none" id="id103" stroke="none" /><text fill="#e1ed5e" style="font-size:6.75px; font-family:Arial;" text-anchor="middle"><textPath startOffset="22.145653131862474" xlink:href="#id103">July</textPath></text><path d="M 97.48249496171623 120.84855314841334 l -3.0730957689075677 25.449641408428334 a46.63451121871583,46.63451121871583 0 0,0 -0.7939462869511184,-0.10279224220423967 l 3.5095198777494803 -25.393137570023697" fill="#d9ff1c" stroke="none" /><path d="M 97.12497278360702 120.80226474461374 l -0.674120385166197 4.877599294368362 a25.923963156860474,25.923963156860474 0 0,0 -0.44030603910492744,-0.06470982497723533 l 0.7577515298788094 -4.865308396092244" fill="#ff0400" stroke="none" /><path d="M 96.76829788921471 120.74984581791261 l -2.5011198516110724 16.058983629663587 a37.25258612436575,37.25258612436575 0 0,0 -0.6310277597090563,-0.1038353777258985 l 2.7764251143731924 -16.01368225344202" fill="#ffaa0f" stroke="none" /><path d="M 96.41257539226777 120.69131181640829 l -5.695199023160916 32.848394525347004 a54.338450995903514,54.338450995903514 0 0,0 -0.9177124381373782,-0.16723777683839192 l 6.258246194849352 -32.74578857457725" fill="#7dff26" stroke="none" /><path d="M 95.35216902796893 120.47920084513623 l -4.7645753394727395 20.993598068865616 a42.527478673606666,42.527478673606666 0 0,0 -0.710548802337201,-0.16768758262749764 l 5.124256295549828 -20.90871434259189" fill="#fff116" stroke="none" /><path d="M 94.6519064749342 120.30758222061772 l -9.395455294784771 35.67607410093526 a57.892503892413195,57.892503892413195 0 0,0 -0.9588614095353271,-0.2613419410361414 l 10.006498105254792 -35.50953166575497" fill="#56ff2b" stroke="none" /><path d="M 94.30408787586889 120.21278271476187 l -9.456316784708426 33.55713225305847 a55.864065342154454,55.864065342154454 0 0,0 -0.9207993755164977,-0.2680312783389685 l 10.03097617260653 -33.38985728041699" fill="#6cff28" stroke="none" /><path d="M 93.95794788825049 120.11202640906438 l -6.762864791311125 22.511377387706315 a44.50528561998962,44.50528561998962 0 0,0 -0.7298005709508004,-0.22609408240857948 l 7.148305995133558 -22.391966717491087" fill="#f4ff19" stroke="none" /><path d="M 93.61358852112213 120.00534299687104 l -8.675489949675843 27.175848703639655 a49.52702014985161,49.52702014985161 0 0,0 -0.8077084892088676,-0.265509823532086 l 9.140721176532455 -27.02291795870555" fill="#b5ff1f" stroke="none" /><line stroke="#e1ed5e" stroke-width="0.3" x1="58.13341422392154" x2="55.67067388415222" y1="173.97424548756322" y2="178.32567169271397" /><path d="M 57.64086615596768 174.84453072859336 a86.0,86.0 0 0,1 -31.369924170532247,-30.572349798747897" fill="none" id="id104" stroke="none" /><text fill="#e1ed5e" style="font-size:6.75px; font-family:Arial;" text-anchor="middle"><textPath startOffset="22.145653131862474" xlink:href="#id104">August</textPath></text><path d="M 89.03521579738668 117.91015095944536 l -28.416488838625007 46.41619893585023 a75.4238951341056,75.4238951341056 0 0,0 -1.0984444132577404,-0.6855105544703683 l 29.20909738067246 -45.92155258453831" fill="#42ffd4" stroke="none" /><path d="M 88.72937992617639 117.7192867562869 l -8.447044747085073 13.280157359257808 a36.738968976585056,36.738968976585056 0 0,0 -0.5292412367371888,-0.34304777554182664 l 8.673771616079271 -13.133195742012088" fill="#ffa30f" stroke="none" /><path d="M 88.1277618465304 117.32195027204791 l -12.689451666389122 18.51428921011923 a43.44551377334818,43.44551377334818 0 0,0 -0.6115574827561671,-0.42691461891143184 l 13.005404240319054 -18.293729775402667" fill="#fffd17" stroke="none" /><path d="M 87.54013794807813 116.9041958592261 l -16.731377973567895 22.699327575324812 a49.199263842630614,49.199263842630614 0 0,0 -0.6755457465149115,-0.5069421222934664 l 17.118576708993572 -22.40876642576733" fill="#b9ff1f" stroke="none" /><path d="M 86.68645165197938 116.24036423190432 l -21.783784741648898 26.572675390958082 a55.36044753933983,55.36044753933983 0 0,0 -0.7297710833892075,-0.6088009929712676 l 22.2367301592 -26.194812214074943" fill="#72ff27" stroke="none" /><path d="M 84.58840730492382 114.26474011684316 l -21.807897159406476 20.18506403774627 a50.71567244272232,50.71567244272232 0 0,0 -0.5858923208549787,-0.6439982938475806 l 22.151187181103335 -19.807728168341015" fill="#a7ff21" stroke="none" /><path d="M 83.8745106332314 113.45245675266167 l -29.489309011286213 24.601030400834272 a59.403516020618454,59.403516020618454 0 0,0 -0.6465172635676836,-0.7886459393159672 l 29.907273094092528 -24.09118217981981" fill="#46ff2d" stroke="none" /><path d="M 83.20337586046588 112.60449989151573 l -50.38987241860234 37.813499674547174 a84.0,84.0 0 0,0 -0.8555919216646783,-1.1607747629244813 l 51.03156635985085 -36.942918602353814" fill="#4dd2ff" stroke="none" /><path d="M 82.78059297857968 112.02048342749411 l -31.92891040178087 22.288859184588453 a59.939036495467676,59.939036495467676 0 0,0 -0.5817233715798622,-0.8487517841486012 l 32.30682351017606 -21.7374726653698" fill="#40ff2d" stroke="none" /><path d="M 81.99639281039703 110.81064883170644 l -12.569178131773809 7.547430326309364 a35.661103077147885,35.661103077147885 0 0,0 -0.3106358704086907,-0.5275276194418556 l 12.69688771231227 -7.330551538573949" fill="#ff940d" stroke="none" /><line stroke="#e1ed5e" stroke-width="0.3" x1="26.387840678322732" x2="22.057713659400548" y1="142.50000000000003" y2="145.00000000000006" /><path d="M 25.521815274538298 143.00000000000003 a86.0,86.0 0 0,1 -11.493303480769221,-40.785679425670985" fill="none" id="id105" stroke="none" /><text fill="#e1ed5e" style="font-size:6.75px; font-family:Arial;" text-anchor="middle"><textPath startOffset="21.40746469413373" xlink:href="#id105">September</textPath></text><path d="M 81.81346652052679 110.50000000000001 l -29.299294154203388 16.915955366995373 a54.83191073399072,54.83191073399072 0 0,0 -0.46363418468966183,-0.8191971797770902 l 29.585361703914426 -16.41050141711916" fill="#78ff26" stroke="none" /><path d="M 81.4637452351635 109.86951160357371 l -4.147197816837572 2.208149245620009 a25.698422375959247,25.698422375959247 0 0,0 -0.20398665000695332,-0.3911712980363181 l 4.184492535819475 -2.136631704479188" fill="#ff0000" stroke="none" /><path d="M 81.29705330413844 109.54985784667822 l -22.501577810427666 11.489465960093966 a46.26517033401692,46.26517033401692 0 0,0 -0.355096389033839,-0.710430647708488 l 22.69549411267324 -11.101503456221726" fill="#ddff1b" stroke="none" /><path d="M 81.1358732173502 109.22738970284198 l -5.7305833916778735 2.803115500065459 a27.379423368587595,27.379423368587595 0 0,0 -0.2028955324404442,-0.4239736276252954 l 5.777858182078229 -2.7043293703750586" fill="#ff1a02" stroke="none" /><path d="M 80.83023694016515 108.57439118712176 l -33.59733688387198 15.027661447283164 a57.80504930390048,57.80504930390048 0 0,0 -0.3973852651343752,-0.9092952544550221 l 33.850356031023324 -14.448704123052291" fill="#57ff2a" stroke="none" /><path d="M 80.68587082218212 108.24405325689762 l -33.512271427022874 14.304395909357732 a57.437454336576586,57.437454336576586 0 0,0 -0.37929002248090166,-0.9101579782696945 l 33.75288729404026 -13.727005421646757" fill="#5bff2a" stroke="none" /><path d="M 80.28708602549918 107.23885506374661 l -5.008063297125129 1.839030211609076 a26.335047338798667,26.335047338798667 0 0,0 -0.1521912793772053,-0.42570609493218037 l 5.038894746546277 -1.7527891602959742" fill="#ff0a01" stroke="none" /><path d="M 79.83685265289637 105.86919833188381 l -11.616900070459202 3.3815103039949816 a33.09904868917632,33.09904868917632 0 0,0 -0.15411785198689146,-0.5469098867377676 l 11.67323641452067 -3.1815924933542186" fill="#ff6f0a" stroke="none" /><path d="M 79.407916724674 104.11899336999214 l -16.52021236711191 3.3045051489536013 a37.84746778996589,37.84746778996589 0 0,0 -0.12196564157517298,-0.63817577449577 l 16.574504300969238 -3.020426809424517" fill="#ffb210" stroke="none" /><path d="M 79.34024301695615 103.76489593502545 l -34.222215016316426 6.236427577935336 a55.78581649980097,55.78581649980097 0 0,0 -0.1635990328802366,-0.9435957469020315 l 34.32422886668889 -5.648038798112712" fill="#6dff28" stroke="none" /><path d="M 79.2786578344484 103.40968896794605 l -11.457070986437733 1.885256670891499 a32.61114414273693,32.61114414273693 0 0,0 -0.08615321984299627,-0.5531654735418985 l 11.487745698418998 -1.6883030154181504" fill="#ff6809" stroke="none" /><path d="M 79.17382384314188 102.69636545807758 l -15.872504834442134 2.055013529435919 a37.004983296634634,37.004983296634634 0 0,0 -0.07615610362269663,-0.6306817860575966 l 15.905443024324493 -1.782238066454923" fill="#ffa60f" stroke="none" /><path d="M 79.13060592940153 102.33845913500099 l -33.95873128221398 3.8051466713072433 a55.17125358379143,55.17125358379143 0 0,0 -0.09738411305421216,-0.9421029540537724 l 34.019047787749855 -3.2216391949705394" fill="#74ff27" stroke="none" /><line stroke="#e1ed5e" stroke-width="0.3" x1="15.003131293944662" x2="10.003315487706104" y1="100.72959589197737" y2="100.7725132973878" /><path d="M 14.003168132696942 100.73817937305945 a86.0,86.0 0 0,1 10.791469493833604,-42.45332614584628" fill="none" id="id106" stroke="none" /><text fill="#e1ed5e" style="font-size:6.75px; font-family:Arial;" text-anchor="middle"><textPath startOffset="22.145653131862435" xlink:href="#id106">October</textPath></text><line stroke="#e1ed5e" stroke-width="0.3" x1="26.387840678322718" x2="22.05771365940052" y1="57.49999999999999" y2="54.99999999999999" /><path d="M 25.521815274538284 56.99999999999999 a86.0,86.0 0 0,1 29.574782752854787,-30.34633250058573" fill="none" id="id107" stroke="none" /><text fill="#e1ed5e" style="font-size:6.75px; font-family:Arial;" text-anchor="middle"><textPath startOffset="21.40746469413373" xlink:href="#id107">November</textPath></text><line stroke="#e1ed5e" stroke-width="0.3" x1="56.869717070023135" x2="54.33264160355391" y1="26.7553504044142" y2="22.446841604673864" /><path d="M 56.362301976729285 25.89364864446614 a86.0,86.0 0 0,1 42.16139366436587,-11.88097634709845" fill="none" id="id108" stroke="none" /><text fill="#e1ed5e" style="font-size:6.75px; font-family:Arial;" text-anchor="middle"><textPath startOffset="22.145653131862474" xlink:href="#id108">December</textPath></text></svg>