<?xml version="1.0" encoding="utf-8" ?>
<svg baseProfile="full" height="200mm" version="1.1" viewBox="0,0,200,200" width="200mm" xmlns="http://www.w3.org/2000/svg" xmlns:ev="http://www.w3.org/2001/xml-events" xmlns:xlink="http://www.w3.org/1999/xlink"><defs /><rect fill="#1a1a1a" height="200" width="200" x="0" y="0" /><text alignment-baseline="middle" fill="#e1ed5e" style="dominant-baseline: central; font-size:9.0px; font-family:Arial;" text-anchor="middle" x="100.0" y="100.0">2024</text><line stroke="#e1ed5e" stroke-width="0.3" x1="100.0" x2="100.0" y1="15.0" y2="10.0" /><path d="M 100.0 14.0 a86.0,86.0 0 0,1 42.35913384403234,11.155469271406648" fill="none" id="id97" stroke="none" /><text fill="#e1ed5e" style="font-size:6.75px; font-family:Arial;" text-anchor="middle"><textPath startOffset="22.145653131862478" xlink:href="#id97">January</textPath></text><line stroke="#e1ed5e" stroke-width="0.3" x1="143.13028292997686" x2="145.6673583964461" y1="26.7553504044142" y2="22.446841604673864" /><path d="M 143.63769802327073 25.89364864446614 a86.0,86.0 0 0,1 29.32050498858742,28.57503671076993" fill="none" id="id98" stroke="none" /><text fill="#e1ed5e" style="font-size:6.75px; font-family:Arial;" text-anchor="middle"><textPath startOffset="20.669276256404974" xlink:href="#id98">February</textPath></text><line stroke="#e1ed5e" stroke-width="0.3" x1="172.87174338648825" x2="177.1583165268699" y1="56.24261187166439" y2="53.66864786411523" /><path d="M 173.72905801456457 55.72781907015455 a86.0,86.0 0 0,1 12.242430191666344,42.057860355516425" fill="none" id="id99" stroke="none" /><text fill="#e1ed5e" style="font-size:6.75px; font-family:Arial;" text-anchor="middle"><textPath startOffset="22.145653131862474" xlink:href="#id99">March</textPath></text><line stroke="#e1ed5e" stroke-width="0.3" x1="184.99686870605535" x2="189.99668451229388" y1="99.2704041080226" y2="99.22748670261217" /><path d="M 185.99683186730306 99.26182062694052 a86.0,86.0 0 0,1 -10.086455211305974,41.156179273409016" fill="none" id="id100" stroke="none" /><text fill="#e1ed5e" style="font-size:6.75px; font-family:Arial;" text-anchor="middle"><textPath startOffset="21.40746469413373" xlink:href="#id100">April</textPath></text><line stroke="#e1ed5e" stroke-width="0.3" x1="174.33088141563837" x2="178.70328620479359" y1="141.23008692659167" y2="143.65538615756765" /><path d="M 175.20536237346943 141.71514677278685 a86.0,86.0 0 0,1 -30.301960400862466,31.631185727798858" fill="none" id="id101" stroke="none" /><text fill="#e1ed5e" style="font-size:6.75px; font-family:Arial;" text-anchor="middle"><textPath startOffset="22.145653131862474" xlink:href="#id101">May</textPath></text><line stroke="#e1ed5e" stroke-width="0.3" x1="143.1302829299769" x2="145.66735839644613" y1="173.24464959558577" y2="177.55315839532614" /><path d="M 143.63769802327073 174.10635135553383 a86.0,86.0 0 0,1 -40.68552437913181,11.842963189579606" fill="none" id="id102" stroke="none" /><text fill="#e1ed5e" style="font-size:6.75px; font-family:Arial;" text-anchor="middle"><textPath startOffset="21.407464694133747" xlink:href="#id102">June</textPath></text><line stroke="#e1ed5e" stroke-width="0.3" x1="101.45913802915013" x2="101.54496967792366" y1="184.9874750549273" y2="189.98673829345242" /><path d="M 101.47630435890484 185.9873277026323 a86.0,86.0 0 0,1 -42.54439059252881,-10.42667462771756" fill="none" id="id103" stroke="none" /><text fill="#e1ed5e" style="font-size:6.75px; font-family:Arial;" text-anchor="middle"><textPath startOffset="22.145653131862474" xlink:href="#id103">July</textPath></text><path d="M 97.48249496171623 120.84855314841334 l -1.863554728614585 15.432906474334047 a36.54501329919288,36.54501329919288 0 0,0 -0.6221739406551113,-0.0805528729740429 l 2.1282064911604905 -15.398642005159608" fill="#ffc612" stroke="none" /><path d="M 97.12497278360702 120.80226474461374 l -0.4087930627292263 2.9578229618722687 a23.985938452465888,23.985938452465888 0 0,0 -0.40738962211589713,-0.05987224521892034 l 0.4595077904528083 -2.950369643354466" fill="#ff1b02" stroke="none" /><path d="M 96.76829788921471 120.74984581791261 l -1.5167030502139276 9.738321591729061 a30.85572400011611,30.85572400011611 0 0,0 -0.5226702469727056,-0.0860051902400018 l 1.6836508002396966 -9.71085040299339" fill="#ff7b0b" stroke="none" /><path d="M 96.41257539226777 120.69131181640829 l -3.4536232737665506 19.9195812784151 a41.21675621914869,41.21675621914869 0 0,0 -0.6961024679345472,-0.12685305805091948 l 3.7950604752521553 -19.857360046432813" fill="#feff18" stroke="none" /><path d="M 95.35216902796893 120.47920084513623 l -2.8892841523358106 12.730719083895 a34.05446939963426,34.05446939963426 0 0,0 -0.5689818254181221,-0.13427816154148842 l 3.1073981314938206 -12.679244778707284" fill="#ffa50f" stroke="none" /><path d="M 94.6519064749342 120.30758222061772 l -5.697494142301729 21.63431327518838 a43.371967959715896,43.371967959715896 0 0,0 -0.7183608159263654,-0.19579243478938424 l 6.06803635916279 -21.53332034625485" fill="#e4ff1a" stroke="none" /><path d="M 94.30408787586889 120.21278271476187 l -5.734401133123587 20.349366629456664 a42.141903381096355,42.141903381096355 0 0,0 -0.6946189483118198,-0.2021934523685515 l 6.082880093817013 -20.247929482785597" fill="#f3ff19" stroke="none" /><path d="M 93.95794788825049 120.11202640906438 l -4.10106602870664 13.651115010125594 a35.253830488380586,35.253830488380586 0 0,0 -0.5780946074204497,-0.17909518711363953 l 4.334801268998723 -13.578703235205305" fill="#ffb510" stroke="none" /><path d="M 93.61358852112213 120.00534299687104 l -5.260900256458297 16.479695123131545 a38.299058438532676,38.299058438532676 0 0,0 -0.6245979373665598,-0.20531774810381617 l 5.5430209314726 -16.386956453625707" fill="#ffdc14" stroke="none" /><line stroke="#e1ed5e" stroke-width="0.3" x1="58.13341422392154" x2="55.67067388415222" y1="173.97424548756322" y2="178.32567169271397" /><path d="M 57.64086615596768 174.84453072859336 a86.0,86.0 0 0,1 -31.369924170532247,-30.572349798747897" fill="none" id="id104" stroke="none" /><text fill="#e1ed5e" style="font-size:6.75px; font-family:Arial;" text-anchor="middle"><textPath startOffset="22.145653131862474" xlink:href="#id104">August</textPath></text><path d="M 89.03521579738668 117.91015095944536 l -17.232031192008066 28.147227914725196 a54.00317163979584,54.00317163979584 0 0,0 -0.7864812879321736,-0.4908224915742268 l 17.71267660872995 -27.84726962630942" fill="#6dff28" stroke="none" /><path d="M 88.72937992617639 117.7192867562869 l -5.1223688960546845 8.05321470745712 a30.544261638894447,30.544261638894447 0 0,0 -0.44000371418412515,-0.2852050915600911 l 5.259858242495819 -7.964095774193133" fill="#ff770a" stroke="none" /><path d="M 88.1277618465304 117.32195027204791 l -7.695005113632349 11.227242428803537 a34.61117468310338,34.61117468310338 0 0,0 -0.487201577931793,-0.3401045393777454 l 7.886601782737907 -11.093493073620662" fill="#ffad10" stroke="none" /><path d="M 87.54013794807813 116.9041958592261 l -10.14606796649369 13.765089805322088 a38.10030387242553,38.10030387242553 0 0,0 -0.523148035390736,-0.3925800387358122 l 10.380868990795193 -13.58889073932226" fill="#ffd914" stroke="none" /><path d="M 86.68645165197938 116.24036423190432 l -13.209895855882472 16.113925045155266 a41.836504718501686,41.836504718501686 0 0,0 -0.5514961083351594,-0.460077668211977 l 13.484566298379525 -15.88478519303142" fill="#f7ff19" stroke="none" /><path d="M 84.58840730492382 114.26474011684316 l -13.2245178571182 12.2404162979607 a39.01986858166896,39.01986858166896 0 0,0 -0.450776658607647,-0.4954825122575612 l 13.432692216567725 -12.011596210145465" fill="#ffe515" stroke="none" /><path d="M 83.8745106332314 113.45245675266167 l -17.882599627246453 14.918300625744282 a44.28826019668445,44.28826019668445 0 0,0 -0.4820106065875911,-0.5879745662085227 l 18.136057053072673 -14.609123777837263" fill="#d9ff1c" stroke="none" /><path d="M 83.20337586046588 112.60449989151573 l -30.55690160067917 22.93046862936473 a59.203803828884226,59.203803828884226 0 0,0 -0.6030273367596869,-0.8181223970678642 l 30.94603095702269 -22.402539923027984" fill="#39ff2e" stroke="none" /><path d="M 82.78059297857968 112.02048342749411 l -19.361997293010432 13.516177839010183 a44.61300494537477,44.61300494537477 0 0,0 -0.4329803942560018,-0.6317313349953567 l 19.59116742408176 -13.181811768944776" fill="#d6ff1c" stroke="none" /><path d="M 81.99639281039703 110.81064883170644 l -7.622070089469651 4.5768340888649925 a29.890633426577914,29.890633426577914 0 0,0 -0.26037060355214175,-0.44216620728247275 l 7.6995144031515625 -4.44531671328896" fill="#ff6e0a" stroke="none" /><line stroke="#e1ed5e" stroke-width="0.3" x1="26.387840678322732" x2="22.057713659400548" y1="142.50000000000003" y2="145.00000000000006" /><path d="M 25.521815274538298 143.00000000000003 a86.0,86.0 0 0,1 -11.493303480769221,-40.785679425670985" fill="none" id="id105" stroke="none" /><text fill="#e1ed5e" style="font-size:6.75px; font-family:Arial;" text-anchor="middle"><textPath startOffset="21.40746469413373" xlink:href="#id105">September</textPath></text><path d="M 81.81346652052679 110.50000000000001 l -17.767372796697785 10.257997466965913 a41.51599493393181,41.51599493393181 0 0,0 -0.35104073896227506,-0.6202553496723939 l 17.94084690068144 -9.951485347194398" fill="#fbff18" stroke="none" /><path d="M 81.4637452351635 109.86951160357371 l -2.5149005053022147 1.339042866739135 a23.849168361212495,23.849168361212495 0 0,0 -0.1893078060700979,-0.36302267930927623 l 2.537516380347262 -1.295673944325356" fill="#ff1902" stroke="none" /><path d="M 81.29705330413844 109.54985784667822 l -13.645172452538935 6.967322279969411 a36.32104144673219,36.32104144673219 0 0,0 -0.278772791077352,-0.5577323246441491 l 13.762765156828022 -6.732058099161509" fill="#ffc312" stroke="none" /><path d="M 81.1358732173502 109.22738970284198 l -3.4750806939797396 1.6998361059397706 a24.868543474840006,24.868543474840006 0 0,0 -0.1842886280481329,-0.3850923538032566 l 3.5037485799877843 -1.6399312500714092" fill="#ff2803" stroke="none" /><path d="M 80.83023694016515 108.57439118712176 l -20.37374710292669 9.112917935537974 a43.31893465902581,43.31893465902581 0 0,0 -0.2977993538992464,-0.6814232007037051 l 20.527180338842903 -8.761832665058419" fill="#e5ff1a" stroke="none" /><path d="M 80.68587082218212 108.24405325689762 l -20.322162594576255 8.674322781139633 a43.09602154759522,43.09602154759522 0 0,0 -0.2845859234261995,-0.6829026163551299 l 20.46807436253894 -8.324187655343222" fill="#e8ff1a" stroke="none" /><path d="M 80.28708602549918 107.23885506374661 l -3.0369375835873575 1.1152055466619775 a24.235223840464684,24.235223840464684 0 0,0 -0.14005631639170318,-0.3917624437200703 l 3.0556340700230042 -1.0629081465609858" fill="#ff1f03" stroke="none" /><path d="M 79.83685265289637 105.86919833188381 l -7.044599545898011 2.0505802587170625 a28.336979089482714,28.336979089482714 0 0,0 -0.1319444069248026,-0.46822415259890504 l 7.0787624448973885 -1.9293481822151617" fill="#ff5808" stroke="none" /><path d="M 79.407916724674 104.11899336999214 l -10.018015118803978 2.0038835946374802 a31.2164659438302,31.2164659438302 0 0,0 -0.10059685677460799,-0.526365262830246 l 10.050938267860744 -1.8316157667739197" fill="#ff800b" stroke="none" /><path d="M 79.34024301695615 103.76489593502545 l -20.75267919163887 3.7818294568330977 a42.094452533110484,42.094452533110484 0 0,0 -0.12344735913409945,-0.7120115626263929 l 20.8145413682652 -3.4250248612861123" fill="#f4ff19" stroke="none" /><path d="M 79.2786578344484 103.40968896794605 l -6.947677657451878 1.1432377146322887 a28.041109096159047,28.041109096159047 0 0,0 -0.07407994721156941,-0.4756464024667319 l 6.966279096801715 -1.0238031302341069" fill="#ff5407" stroke="none" /><path d="M 79.17382384314188 102.69636545807758 l -9.625239062984827 1.246179900702744 a30.7055752722095,30.7055752722095 0 0,0 -0.0631919477838965,-0.5233199782680141 l 9.645213097028384 -1.0807662455113307" fill="#ff790b" stroke="none" /><path d="M 79.13060592940153 102.33845913500099 l -20.592900129896776 2.307477412234186 a41.72177569051151,41.72177569051151 0 0,0 -0.07364411458399268,-0.7124400040449216 l 20.629476636962437 -1.953632885906333" fill="#f8ff18" stroke="none" /><path d="M 79.0935383218832 101.97986365728391 l -18.8617805901858 1.786230232409935 a39.94617073383128,39.94617073383128 0 0,0 -0.058790067832393045,-0.6832297031205001 l 18.88966428071593 -1.462179481913773" fill="#fff016" stroke="none" /><path d="M 79.03789590574601 101.26102812881392 l -44.568365976888245 2.681122224153778 a65.6489379742755,65.6489379742755 0 0,0 -0.058016187746028625,-1.1254985431238402 l 44.607823754090845 -1.915651887653207" fill="#36ff70" stroke="none" /><path d="M 79.01933749520258 100.90099992219065 l -23.559720646635885 1.0117557758053894 a44.58143521284056,44.58143521284056 0 0,0 -0.026271867375649443,-0.7648767535203337 l 23.573617201008382 -0.6071727577209359" fill="#d6ff1c" stroke="none" /><line stroke="#e1ed5e" stroke-width="0.3" x1="15.003131293944662" x2="10.003315487706104" y1="100.72959589197737" y2="100.7725132973878" /><path d="M 14.003168132696942 100.73817937305945 a86.0,86.0 0 0,1 10.791469493833604,-42.45332614584628" fill="none" id="id106" stroke="none" /><text fill="#e1ed5e" style="font-size:6.75px; font-family:Arial;" text-anchor="middle"><textPath startOffset="22.145653131862435" xlink:href="#id106">October</textPath></text><path d="M 79.00077361379809 100.18025310272382 l -30.856640554038524 0.2648671478275886 a51.857777316053294,51.857777316053294 0 0,0 0.0,-0.890240501102801 l 30.856640554038524 0.26486714782757725" fill="#84ff25" stroke="none" /><path d="M 79.03789590574601 98.7389718711861 l -1.728398181298154 -0.10397614259559111 a22.7315228301538,22.7315228301538 0 0,0 0.026775611023996396,-0.38931150785004304 l 1.726358609109094 0.13363107459995913" fill="#ff0901" stroke="none" /><path d="M 79.0935383218832 98.0201363427161 l -3.018249012219068 -0.28583131951881086 a24.031753064314316,24.031753064314316 0 0,0 0.042419028122170375,-0.4103656176417556 l 3.012897591615234 0.3376014594434792" fill="#ff1c02" stroke="none" /><path d="M 79.13060592940154 97.66154086499901 l -10.451834430724412 -1.1711498484030738 a31.517244645566198,31.517244645566198 0 0,0 0.0648623600202386,-0.537153387838053 l 10.430189984444505 1.350396913164563" fill="#ff840c" stroke="none" /><path d="M 79.17382384314186 97.30363454192245 l -2.9989266038681572 -0.3882710894730005 a24.02395688036532,24.02395688036532 0 0,0 0.05646257171844145,-0.40853504215599523 l 2.991819515594508 0.4396944398290627" fill="#ff1c02" stroke="none" /><path d="M 79.34024301695615 96.23510406497455 l -2.764656648453356 -0.5038125369066945 a23.81018744146751,23.81018744146751 0 0,0 0.07672969836289881,-0.4014822047190301 l 2.755600657808298 0.5511973066590391" fill="#ff1802" stroke="none" /><path d="M 79.407916724674 95.88100663000787 l -21.98128780373073 -4.396873182615002 a43.41672383053421,43.41672383053421 0 0,0 0.1524594573223742,-0.7295736942323933 l 21.902570635583988 4.773563328132804" fill="#e4ff1a" stroke="none" /><path d="M 79.48165901384962 95.52812308129327 l -3.4454020788735673 -0.7509093470363264 a24.526281374560575,24.526281374560575 0 0,0 0.09318718381288361,-0.4105999260688898 l 3.432004033503022 0.8099436070442244" fill="#ff2303" stroke="none" /><path d="M 80.05021161711548 93.44210830539832 l -59.84936514865357 -19.67367508380505 a84.0,84.0 0 0,0 0.46205831371054007,-1.3659933021033535 l 59.50282141337067 20.698170060382566" fill="#4dd2ff" stroke="none" /><path d="M 80.16572619554312 93.10060997987247 l -3.2908087149267495 -1.1447140959006237 a24.484220480909816,24.484220480909816 0 0,0 0.14149527781761037,-0.3957874749300565 l 3.2706732670651957 1.2010365272116017" fill="#ff2203" stroke="none" /><path d="M 80.28708602549916 92.7611449362534 l -3.6941441400689135 -1.3565408974613469 a24.935340408921537,24.935340408921537 0 0,0 0.15100048517413403,-0.40054672686123505 l 3.6703129710803433 1.419755904516727" fill="#ff2903" stroke="none" /><path d="M 80.41425534168474 92.42381321644754 l -3.278927822893625 -1.268359721287511 a24.51569396425947,24.51569396425947 0 0,0 0.1551975637968318,-0.3911992433203074 l 3.256671584130662 1.3244599818214013" fill="#ff2303" stroke="none" /><path d="M 80.68587082218212 91.75594674310238 l -14.562987540930383 -6.2160734124555885 a36.83414584959766,36.83414584959766 0 0,0 0.25321917359651813,-0.5794150238823779 l 14.454134485316887 6.465150506113833" fill="#ffc912" stroke="none" /><path d="M 80.83023694016515 91.42560881287825 l -3.277554420590966 -1.4660084035211436 a24.590479580659107,24.590479580659107 0 0,0 0.17566447398874388,-0.38385857805548584 l 3.2519054817471753 1.5220559637913007" fill="#ff2403" stroke="none" /><path d="M 80.9802524753101 91.09779779509293 l -28.741669863175485 -13.452552747954709 a52.734126141431304,52.734126141431304 0 0,0 0.39078684956978627,-0.8165942159864821 l 28.50650375564579 13.943959466006278" fill="#7bff26" stroke="none" /><path d="M 81.1358732173502 90.77261029715801 l -3.0389772177417416 -1.4865160422878874 a24.383062587941964,24.383062587941964 0 0,0 0.18714591162323638,-0.3744171873226791 l 3.0130113929067615 1.5384650857743367" fill="#ff2103" stroke="none" /><path d="M 81.29705330413844 90.45014215332179 l -16.199318728764425 -8.271487567622883 a39.18888214974845,39.18888214974845 0 0,0 0.31107002096452746,-0.5965177813191723 l 16.05494063882496 8.548351592046542" fill="#ffe715" stroke="none" /><path d="M 81.46374523516351 90.13048839642627 l -3.4094139645389885 -1.8153209001117585 a24.862576025397562,24.862576025397562 0 0,0 0.20381943253876586,-0.37500479921021335 l 3.3777491823848718 1.8735805327965913" fill="#ff2803" stroke="none" /><line stroke="#e1ed5e" stroke-width="0.3" x1="26.387840678322718" x2="22.05771365940052" y1="57.49999999999999" y2="54.99999999999999" /><path d="M 25.521815274538284 56.99999999999999 a86.0,86.0 0 0,1 29.574782752854787,-30.34633250058573" fill="none" id="id107" stroke="none" /><text fill="#e1ed5e" style="font-size:6.75px; font-family:Arial;" text-anchor="middle"><textPath startOffset="21.40746469413373" xlink:href="#id107">November</textPath></text><path d="M 82.18462484594161 88.88188828441811 l -25.276210430614405 -15.774224729144098 a50.79451257426847,50.79451257426847 0 0,0 0.4679923593146297,-0.7357617203073674 l 25.001700379673885 16.20580012413014" fill="#90ff24" stroke="none" /><path d="M 82.37810715431573 88.57770195909679 l -4.072641918247606 -2.639837287144369 a25.853365131212083,25.853365131212083 0 0,0 0.24459199158242004,-0.3703434497198046 l 4.026725487744456 2.709360615203235" fill="#ff3605" stroke="none" /><path d="M 82.576782715395 88.27688183743585 l -2.1462826164423943 -1.444114729892262 a23.586889333298704,23.586889333298704 0 0,0 0.22891667251084225,-0.3339962664509591 l 2.1211762071162386 1.480745731413256" fill="#ff1502" stroke="none" /><path d="M 82.78059297857968 87.97951657250589 l -3.964232648117301 -2.767342266208575 a25.834596540223757,25.834596540223757 0 0,0 0.2569741501344075,-0.3614663239185322 l 3.9161433994529213 2.8349858168366273" fill="#ff3505" stroke="none" /><path d="M 82.98947788004972 87.6856937992154 l -1.4886490557267391 -1.0776671150045507 a22.837781929903095,22.837781929903095 0 0,0 0.23261692533292525,-0.3155895345881638 l 1.4699301108099951 1.103062958861578" fill="#ff0a01" stroke="none" /><path d="M 83.2033758604659 87.39550010848427 l -0.9017121288319622 -0.6766615919736918 a22.127366698698804,22.127366698698804 0 0,0 0.23059668801744737,-0.3018584668679668 l 0.889963463460208 0.6920409720825429" fill="#ff0000" stroke="none" /><path d="M 83.42222388311158 87.10902102172516 l -44.63683818802058 -34.709875358506906 a77.54398969675395,77.54398969675395 0 0,0 0.8261520760547014,-1.043816159836079 l 44.034419681324316 35.471011462257664" fill="#45ffef" stroke="none" /><path d="M 83.64595745247003 86.82634096563983 l -3.7122408087787027 -2.990318419813223 a25.76683711429667,25.76683711429667 0 0,0 0.28043298003012507,-0.3420826378720239 l 3.6603610095099475 3.05360333938374" fill="#ff3405" stroke="none" /><path d="M 83.8745106332314 86.54754324733833 l -3.2157312830387648 -2.68267740775727 a25.187802020010665,25.187802020010665 0 0,0 0.27983100688452245,-0.3296402224849089 l 3.169205712647128 2.7374844126917357" fill="#ff2c04" stroke="none" /><line stroke="#e1ed5e" stroke-width="0.3" x1="56.869717070023135" x2="54.33264160355391" y1="26.7553504044142" y2="22.446841604673864" /><path d="M 56.362301976729285 25.89364864446614 a86.0,86.0 0 0,1 42.16139366436587,-11.88097634709845" fill="none" id="id108" stroke="none" /><text fill="#e1ed5e" style="font-size:6.75px; font-family:Arial;" text-anchor="middle"><textPath startOffset="22.145653131862474" xlink:href="#id108">December</textPath></text></svg>