<?xml version="1.0" encoding="utf-8" ?>
<svg baseProfile="full" height="200mm" version="1.1" viewBox="0,0,200,200" width="200mm" xmlns="http://www.w3.org/2000/svg" xmlns:ev="http://www.w3.org/2001/xml-events" xmlns:xlink="http://www.w3.org/1999/xlink"><defs /><rect fill="#1a1a1a" height="200" width="200" x="0" y="0" /><text alignment-baseline="middle" fill="#e1ed5e" style="dominant-baseline: central; font-size:9.0px; font-family:Arial;" text-anchor="middle" x="100.0" y="100.0">2020</text><line stroke="#e1ed5e" stroke-width="0.3" x1="100.0" x2="100.0" y1="15.0" y2="10.0" /><path d="M 100.0 14.0 a86.0,86.0 0 0,1 42.35913384403234,11.155469271406648" fill="none" id="id49" stroke="none" /><text fill="#e1ed5e" style="font-size:6.75px; font-family:Arial;" text-anchor="middle"><textPath startOffset="22.145653131862478" xlink:href="#id49">January</textPath></text><line stroke="#e1ed5e" stroke-width="0.3" x1="143.13028292997686" x2="145.6673583964461" y1="26.7553504044142" y2="22.446841604673864" /><path d="M 143.63769802327073 25.89364864446614 a86.0,86.0 0 0,1 29.32050498858742,28.57503671076993" fill="none" id="id50" stroke="none" /><text fill="#e1ed5e" style="font-size:6.75px; font-family:Arial;" text-anchor="middle"><textPath startOffset="20.669276256404974" xlink:href="#id50">February</textPath></text><line stroke="#e1ed5e" stroke-width="0.3" x1="172.87174338648825" x2="177.1583165268699" y1="56.24261187166439" y2="53.66864786411523" /><path d="M 173.72905801456457 55.72781907015455 a86.0,86.0 0 0,1 12.242430191666344,42.057860355516425" fill="none" id="id51" stroke="none" /><text fill="#e1ed5e" style="font-size:6.75px; font-family:Arial;" text-anchor="middle"><textPath startOffset="22.145653131862474" xlink:href="#id51">March</textPath></text><path d="M 120.51834098615036 95.52812308129327 l 43.76912495811225 -9.539277068467106 a65.79658588093324,65.79658588093324 0 0,0 0.23104718394291252,1.1056444151889702 l -43.92642985287953 8.78651620199273" fill="#92ff23" stroke="none" /><path d="M 120.592083275326 95.88100663000786 l 44.62377338093322 -8.926004437848004 a66.50774336283186,66.50774336283186 0 0,0 0.21432502787188581,1.1214391109619697 l -44.770424701087265 8.158662761852721" fill="#83ff25" stroke="none" /><path d="M 120.65975698304385 96.23510406497455 l 50.63863503883942 -9.228046165762555 a72.47259654062752,72.47259654062752 0 0,0 0.2125351468936292,1.2258462482650405 l -50.789585003225284 8.357406884576921" fill="#33ff50" stroke="none" /><path d="M 120.7213421655516 96.59031103205396 l 47.9248761192659 -7.886020127870986 a69.56936343523734,69.56936343523734 0 0,0 0.18379068934655715,1.1800680681494384 l -48.053188300750726 7.062163877790106" fill="#49ff2c" stroke="none" /><path d="M 120.77682067341334 96.94652285012252 l 47.96073312026011 -7.0485761501269835 a69.4759151246983,69.4759151246983 0 0,0 0.16328654184516694,1.1814600756918223 l -48.07466417866049 6.224227766235075" fill="#4bff2c" stroke="none" /><path d="M 120.82617615685814 97.30363454192243 l 48.67312353473674 -6.301710311452862 a70.07936946902655,70.07936946902655 0 0,0 0.14422305450902617,1.1943737833421393 l -48.77412867550543 5.46524285118731" fill="#40ff2d" stroke="none" /><path d="M 120.86939407059847 97.66154086499901 l 48.95828890576439 -5.485878389109307 a70.26468222043444,70.26468222043444 0 0,0 0.12402588871178667,1.1998379660702239 l -49.045247186957845 4.6446359007561515" fill="#3cff2e" stroke="none" /><path d="M 120.9064616781168 98.02013634271609 l 29.771840024979127 -2.8194242040308923 a50.90504324215607,50.90504324215607 0 0,0 0.07491859395380455,0.8706676245244882 l -29.815852241630672 2.307935532130742" fill="#ff1202" stroke="none" /><path d="M 120.98066250479742 99.09900007780936 l 55.4207871258186 -2.380007060153071 a76.47186745776348,76.47186745776348 0 0,0 0.04506491884406507,1.312015942005482 l -55.453476731659514 1.4282848535834693" fill="#3cffa3" stroke="none" /><line stroke="#e1ed5e" stroke-width="0.3" x1="184.99686870605535" x2="189.99668451229388" y1="99.2704041080226" y2="99.22748670261217" /><path d="M 185.99683186730306 99.26182062694052 a86.0,86.0 0 0,1 -10.086455211305974,41.156179273409016" fill="none" id="id52" stroke="none" /><text fill="#e1ed5e" style="font-size:6.75px; font-family:Arial;" text-anchor="middle"><textPath startOffset="21.40746469413373" xlink:href="#id52">April</textPath></text><path d="M 120.82617615685814 102.69636545807757 l 51.629292847428346 6.684445613552272 a73.06021218825423,73.06021218825423 0 0,0 -0.17171057586334337,1.2424121894194398 l -51.506937755009794 -7.569746111171797" fill="#34ff5c" stroke="none" /><path d="M 118.70294669586154 109.54985784667822 l 31.85604222893011 16.2659221453792 a56.76852876106195,56.76852876106195 0 0,0 -0.4506121752682166,0.8641082615192159 l -31.572121984686945 -16.81037665000292" fill="#ffa60f" stroke="none" /><line stroke="#e1ed5e" stroke-width="0.3" x1="174.33088141563837" x2="178.70328620479359" y1="141.23008692659167" y2="143.65538615756765" /><path d="M 175.20536237346943 141.71514677278685 a86.0,86.0 0 0,1 -30.301960400862466,31.631185727798858" fill="none" id="id53" stroke="none" /><text fill="#e1ed5e" style="font-size:6.75px; font-family:Arial;" text-anchor="middle"><textPath startOffset="22.145653131862474" xlink:href="#id53">May</textPath></text><path d="M 117.423217284605 111.72311816256416 l 52.269651853815 35.169354487692466 a84.0,84.0 0 0,0 -0.8152410527387186,1.1894610597198239 l -51.65822106426096 -36.06145028248233" fill="#4dd2ff" stroke="none" /><line stroke="#e1ed5e" stroke-width="0.3" x1="143.1302829299769" x2="145.66735839644613" y1="173.24464959558577" y2="177.55315839532614" /><path d="M 143.63769802327073 174.10635135553383 a86.0,86.0 0 0,1 -40.68552437913181,11.842963189579606" fill="none" id="id54" stroke="none" /><text fill="#e1ed5e" style="font-size:6.75px; font-family:Arial;" text-anchor="middle"><textPath startOffset="21.407464694133747" xlink:href="#id54">June</textPath></text><path d="M 104.9986988182912 120.39639698878246 l 6.960803722001493 28.40245456586061 a50.24298572003218,50.24298572003218 0 0,0 -0.8394594375840809,0.19811014154030027 l -6.472212130677533 -28.517760851047136" fill="#ff0000" stroke="none" /><line stroke="#e1ed5e" stroke-width="0.3" x1="101.45913802915013" x2="101.54496967792366" y1="184.9874750549273" y2="189.98673829345242" /><path d="M 101.47630435890484 185.9873277026323 a86.0,86.0 0 0,1 -42.54439059252881,-10.42667462771756" fill="none" id="id55" stroke="none" /><text fill="#e1ed5e" style="font-size:6.75px; font-family:Arial;" text-anchor="middle"><textPath startOffset="22.145653131862474" xlink:href="#id55">July</textPath></text><line stroke="#e1ed5e" stroke-width="0.3" x1="58.13341422392154" x2="55.67067388415222" y1="173.97424548756322" y2="178.32567169271397" /><path d="M 57.64086615596768 174.84453072859336 a86.0,86.0 0 0,1 -31.369924170532247,-30.572349798747897" fill="none" id="id56" stroke="none" /><text fill="#e1ed5e" style="font-size:6.75px; font-family:Arial;" text-anchor="middle"><textPath startOffset="22.145653131862474" xlink:href="#id56">August</textPath></text><line stroke="#e1ed5e" stroke-width="0.3" x1="26.387840678322732" x2="22.057713659400548" y1="142.50000000000003" y2="145.00000000000006" /><path d="M 25.521815274538298 143.00000000000003 a86.0,86.0 0 0,1 -11.493303480769221,-40.785679425670985" fill="none" id="id57" stroke="none" /><text fill="#e1ed5e" style="font-size:6.75px; font-family:Arial;" text-anchor="middle"><textPath startOffset="21.40746469413373" xlink:href="#id57">September</textPath></text><line stroke="#e1ed5e" stroke-width="0.3" x1="15.003131293944662" x2="10.003315487706104" y1="100.72959589197737" y2="100.7725132973878" /><path d="M 14.003168132696942 100.73817937305945 a86.0,86.0 0 0,1 10.791469493833604,-42.45332614584628" fill="none" id="id58" stroke="none" /><text fill="#e1ed5e" style="font-size:6.75px; font-family:Arial;" text-anchor="middle"><textPath startOffset="22.145653131862435" xlink:href="#id58">October</textPath></text><line stroke="#e1ed5e" stroke-width="0.3" x1="26.387840678322718" x2="22.05771365940052" y1="57.49999999999999" y2="54.99999999999999" /><path d="M 25.521815274538284 56.99999999999999 a86.0,86.0 0 0,1 29.574782752854787,-30.34633250058573" fill="none" id="id59" stroke="none" /><text fill="#e1ed5e" style="font-size:6.75px; font-family:Arial;" text-anchor="middle"><textPath startOffset="21.40746469413373" xlink:href="#id59">November</textPath></text><line stroke="#e1ed5e" stroke-width="0.3" x1="56.869717070023135" x2="54.33264160355391" y1="26.7553504044142" y2="22.446841604673864" /><path d="M 56.362301976729285 25.89364864446614 a86.0,86.0 0 0,1 42.16139366436587,-11.88097634709845" fill="none" id="id60" stroke="none" /><text fill="#e1ed5e" style="font-size:6.75px; font-family:Arial;" text-anchor="middle"><textPath startOffset="22.145653131862474" xlink:href="#id60">December</textPath></text></svg>